/* XPM */
static const char *MyStep_xpm[] = {
/* columns rows colors chars-per-pixel */
/* "  c #FFFFFF", */
"22 22 7 1",
"@ c #FEF2F2",
"   c Black",
"X c #FABABB",
"O c #FBD0D0",
". c #F34648",
"+ c #FEFCFC",
"o c #F34A4C",
/* pixels */
"                      ",
"                      ",
"   ...   .. ..        ",
"  .....  .. .. ..     ",
"  ......       ..X    ",
"   ....  ......   o.  ",
"        ......... ..  ",
"       ...........    ",
"      ............    ",
"      .............   ",
"       ............   ",
"        ...........   ",
"         ..........   ",
"           O.......   ",
"             .....    ",
"           +......    ",
"           .......    ",
"          .o......    ",
"           ......     ",
"         @  ...       ",
"                      ",
"                      "
};
